<svg xmlns="http://www.w3.org/2000/svg" width="396" height="367" viewBox="0 0 396 367"><defs><style>.a{opacity:0.2;}.b{fill:#d9eeff;}.c{fill:#27debf;}.d{fill:#fff;}.e{fill:#1bbc9d;}.f{fill:#3b74b9;}.g{fill:#5094d8;}.h{fill:#256599;}.i{fill:#19547c;}.j{fill:#abd5fd;}.k{fill:#233750;}.l{fill:#aab5bf;}.m{fill:#b7ddf7;}.n{fill:#567291;}.o{fill:#fce7a7;}.p{fill:#f28f8f;}.q{fill:#efd89e;}.r{fill:#002176;}.s{fill:#ffa8a7;}.t{fill:#326ba5;}.u{fill:#ffc000;}.v{fill:#255f87;}.w{fill:#2343ba;}.x{fill:#c1e4ff;}.y{fill:#61c9a1;}.z{fill:#73dbb3;}</style></defs><g transform="translate(-38.565 -44.361)"><g class="a" transform="translate(38.565 204.319)"><path class="b" d="M96.559,394.391c77.324,40.426,202.691,40.428,280.013,0s77.325-105.974,0-146.4-202.691-40.428-280.014,0S19.234,353.964,96.559,394.391Z" transform="translate(-38.565 -217.67)"/></g><g transform="translate(301.31 146.169)"><g transform="translate(0 25.926)"><path class="c" d="M327.781,248.684c.639-7.657,18.183-36.383,23.554-40.83s14.838-15.7,10.759-22.1-16.083-3.545-27.351,16.382c-8.736,15.451-11.451,49.628-11.451,49.628Z" transform="translate(-323.293 -182.703)"/><g transform="translate(1.624 3.507)"><path class="d" d="M325.514,248.253a.452.452,0,0,1-.071-.006.461.461,0,0,1-.386-.526c4.966-32.067,15.5-52.074,32.218-61.166a.462.462,0,0,1,.442.812c-16.444,8.944-26.829,28.732-31.748,60.494A.461.461,0,0,1,325.514,248.253Z" transform="translate(-325.051 -186.5)"/></g></g><g transform="translate(6.21)"><path class="e" d="M330.056,209.394s14.09-24.351,25.754-35.5c6.465-6.18,10.434-10.131,10.085-14.835-.261-3.538-3.206-5.434-9.547-3.875-12.622,3.106-19.36,15.895-23.754,30.218C329.5,195.488,330.056,209.394,330.056,209.394Z" transform="translate(-330.017 -154.634)"/><g transform="translate(1.216 3.717)"><path class="d" d="M331.8,205.7a.389.389,0,0,1-.073-.006.461.461,0,0,1-.384-.527c5.018-31.649,24.081-43.564,29.8-46.462a.462.462,0,0,1,.417.825c-5.624,2.848-24.359,14.566-29.309,45.782A.463.463,0,0,1,331.8,205.7Z" transform="translate(-331.334 -158.658)"/></g></g></g><g transform="translate(194.583 44.361)"><g transform="translate(11.255 6.909)"><path class="f" d="M313.654,52.388l-89.8,51.814a8.842,8.842,0,0,0-4,6.927V309.885c0,2.55,1.791,3.585,4,2.309l89.8-51.813a8.841,8.841,0,0,0,4-6.927V54.7C317.653,52.146,315.863,51.112,313.654,52.388Z" transform="translate(-219.858 -51.841)"/></g><g transform="translate(54.599 221.242)"><path class="b" d="M272.341,284.654a12.277,12.277,0,0,0-5.556,9.622c0,3.542,2.486,4.977,5.556,3.206a12.275,12.275,0,0,0,5.554-9.621C277.894,284.319,275.408,282.884,272.341,284.654Z" transform="translate(-266.785 -283.896)"/></g><g transform="translate(1.171)"><path class="g" d="M223.024,103.63l89.8-51.814c1.976-1.141,3.611-.431,3.937,1.554A8.939,8.939,0,0,0,312.82,47.2l-3.256-1.881a8.84,8.84,0,0,0-8,0l-89.8,51.814a8.183,8.183,0,0,0-2.828,2.985l11.256,6.5A8.173,8.173,0,0,1,223.024,103.63Z" transform="translate(-208.94 -44.361)"/></g><g transform="translate(0 55.756)"><path class="h" d="M207.674,307.425a8.838,8.838,0,0,0,4,6.927l3.257,1.881a8.942,8.942,0,0,0,7.319.32c-1.885.716-3.321-.347-3.321-2.63V115.168a8.172,8.172,0,0,1,1.172-3.942l-11.256-6.5a8.18,8.18,0,0,0-1.171,3.942Z" transform="translate(-207.672 -104.727)"/></g><g transform="translate(15.008 34.363)"><path class="d" d="M226.321,131.222l85.491-49.329c1.326-.765,2.4-.144,2.4,1.385V233.743a5.3,5.3,0,0,1-2.4,4.156l-85.492,49.328c-1.324.765-2.4.145-2.4-1.385V135.379A5.3,5.3,0,0,1,226.321,131.222Z" transform="translate(-223.921 -81.566)"/></g><g transform="translate(57.842 40.884)"><path class="d" d="M271.7,88.817a3.115,3.115,0,0,0-1.406,2.437c0,.9.63,1.261,1.406.812a3.106,3.106,0,0,0,1.408-2.437C273.11,88.733,272.48,88.369,271.7,88.817Z" transform="translate(-270.297 -88.625)"/></g><g transform="translate(43.147 40.465)"><g transform="translate(0 14.522)"><path class="d" d="M257.2,104.278a6.225,6.225,0,0,0-2.813,4.875c0,1.794,1.26,2.522,2.814,1.624a6.218,6.218,0,0,0,2.813-4.873C260.014,104.109,258.753,103.382,257.2,104.278Z" transform="translate(-254.386 -103.895)"/></g><g transform="translate(9.694)"><path class="d" d="M264.881,102.47c0,1.2.9,1.65,2,1.011l18.511-10.687a4.291,4.291,0,0,0,2-3.32c0-1.2-.9-1.65-2-1.012l-18.51,10.688A4.286,4.286,0,0,0,264.881,102.47Z" transform="translate(-264.881 -88.172)"/></g></g><g transform="translate(3.976 89.66)"><path class="i" d="M214.229,141.742a4.978,4.978,0,0,1,2.251,3.9c0,1.435-1.009,2.017-2.251,1.3a4.974,4.974,0,0,1-2.252-3.9C211.977,141.606,212.985,141.024,214.229,141.742Z" transform="translate(-211.977 -141.434)"/></g><g transform="translate(3.976 107.002)"><path class="i" d="M214.229,160.518a4.978,4.978,0,0,1,2.251,3.9c0,1.435-1.009,2.017-2.251,1.3a4.974,4.974,0,0,1-2.252-3.9C211.977,160.382,212.985,159.8,214.229,160.518Z" transform="translate(-211.977 -160.21)"/></g><g transform="translate(3.282 90.007)"><path class="g" d="M213.476,142.118a4.975,4.975,0,0,1,2.251,3.9c0,1.435-1.008,2.018-2.251,1.3a4.971,4.971,0,0,1-2.251-3.9C211.225,141.982,212.233,141.4,213.476,142.118Z" transform="translate(-211.225 -141.81)"/></g><g transform="translate(3.282 107.35)"><path class="g" d="M213.476,160.894a4.977,4.977,0,0,1,2.251,3.9c0,1.435-1.008,2.017-2.251,1.3a4.973,4.973,0,0,1-2.251-3.9C211.225,160.759,212.233,160.177,213.476,160.894Z" transform="translate(-211.225 -160.587)"/></g></g><g transform="translate(228.362 76.712)"><g transform="translate(0 0)"><g transform="translate(0.462 0.462)"><path class="d" d="M245.638,284.953c-.781,0-.866-.875-.866-1.251V133.238a4.872,4.872,0,0,1,2.17-3.756l85.491-49.33a1.741,1.741,0,0,1,.841-.265c.781,0,.866.875.866,1.251V231.6a4.875,4.875,0,0,1-2.169,3.757l-85.492,49.329A1.744,1.744,0,0,1,245.638,284.953Z" transform="translate(-244.771 -79.887)"/></g><path class="j" d="M333.235,80.311c.352,0,.4.494.4.79V231.565a4.423,4.423,0,0,1-1.938,3.356L246.21,284.25a1.318,1.318,0,0,1-.61.2c-.352,0-.405-.494-.405-.789V133.2a4.425,4.425,0,0,1,1.938-3.356l85.492-49.329a1.318,1.318,0,0,1,.611-.2m0-.924a2.174,2.174,0,0,0-1.072.328l-85.492,49.328a5.305,5.305,0,0,0-2.4,4.156V283.665c0,1.084.541,1.712,1.329,1.712a2.178,2.178,0,0,0,1.071-.327l85.492-49.329a5.307,5.307,0,0,0,2.4-4.156V81.1c0-1.086-.54-1.713-1.327-1.713Z" transform="translate(-244.271 -79.387)"/></g><path class="k" d="M334.562,81.1c0-1.531-1.074-2.151-2.4-1.385l-85.492,49.328a5.305,5.305,0,0,0-2.4,4.156v12.355l90.291-52.13Z" transform="translate(-244.271 -79.387)"/><g transform="translate(4.03 48.403)"><g transform="translate(2.818 4.024)"><path class="d" d="M254.255,136.221a.967.967,0,0,0-.932.127,3.682,3.682,0,0,0-1.638,2.837.767.767,0,0,0,1.286.744,3.682,3.682,0,0,0,1.639-2.837A.966.966,0,0,0,254.255,136.221Z" transform="translate(-251.685 -136.149)"/></g><path class="d" d="M255.977,132.742l-.21.122v-.42c0-.583-.408-.818-.913-.527l-3.881,2.242a2.016,2.016,0,0,0-.913,1.58v.42l-.211.121a2.691,2.691,0,0,0-1.216,2.108v3.779c0,.777.545,1.091,1.216.7l6.126-3.537a2.69,2.69,0,0,0,1.216-2.108v-3.779C257.194,132.669,256.648,132.354,255.977,132.742ZM253.09,140.2a1.994,1.994,0,0,1-.985.3,1.284,1.284,0,0,1-.648-.169,1.6,1.6,0,0,1-.707-1.479,4.337,4.337,0,0,1,1.989-3.445,1.447,1.447,0,0,1,2.34,1.351A4.335,4.335,0,0,1,253.09,140.2Zm2.812-5.016c-.314.181-.568.034-.568-.329a1.255,1.255,0,0,1,.569-.985c.314-.181.568-.034.568.328A1.255,1.255,0,0,1,255.9,135.188Z" transform="translate(-248.634 -131.792)"/></g><g transform="translate(78.186 5.343)"><path class="d" d="M336.089,85.333l-5.981,3.453a2.633,2.633,0,0,0-1.187,2.056v3.69c0,.755.534,1.063,1.188.685l3.554-2.051,1.394,1.395a.232.232,0,0,0,.4-.164V92.131l.636-.367a2.635,2.635,0,0,0,1.187-2.057V86.018C337.277,85.263,336.742,84.956,336.089,85.333Z" transform="translate(-328.922 -85.172)"/></g><g transform="translate(17.911 14.014)"><path class="d" d="M266.463,124.2l50.679-29.259c1.546-.892,2.8-.168,2.8,1.616v.033a6.174,6.174,0,0,1-2.8,4.844l-50.673,29.132c-1.548.89-2.8.188-2.8-1.569A6.14,6.14,0,0,1,266.463,124.2Z" transform="translate(-263.663 -94.559)"/></g><g transform="translate(5.849 48.479)"><g transform="translate(0 14.708)"><path class="l" d="M256.259,148.558c3.122-1.777,5.655-.329,5.655,3.234a12.427,12.427,0,0,1-5.655,9.716c-3.124,1.8-5.655.355-5.655-3.234A12.341,12.341,0,0,1,256.259,148.558Z" transform="translate(-250.604 -147.799)"/></g><g transform="translate(14.911)"><path class="k" d="M268.748,142.994l18.76-10.83c1.1-.637,2-.185,2,1.011a4.289,4.289,0,0,1-2,3.321l-18.761,10.83c-1.1.637-2,.185-2-1.012A4.288,4.288,0,0,1,268.748,142.994Z" transform="translate(-266.748 -131.874)"/></g><g transform="translate(14.911 11.167)"><path class="l" d="M268.119,151.589l12.862-7.425c.756-.438,1.371-.127,1.371.693a2.94,2.94,0,0,1-1.372,2.277l-12.863,7.426c-.756.437-1.371.127-1.37-.694A2.939,2.939,0,0,1,268.119,151.589Z" transform="translate(-266.748 -143.965)"/></g></g><g transform="translate(5.849 145.592)"><g transform="translate(0 14.708)"><path class="l" d="M256.259,253.7c3.122-1.777,5.655-.329,5.655,3.234a12.426,12.426,0,0,1-5.655,9.715c-3.124,1.8-5.655.356-5.655-3.234A12.341,12.341,0,0,1,256.259,253.7Z" transform="translate(-250.604 -252.941)"/></g><g transform="translate(14.911)"><path class="k" d="M268.748,248.136l18.76-10.831c1.1-.637,2-.185,2,1.011a4.291,4.291,0,0,1-2,3.321l-18.761,10.83c-1.1.637-2,.185-2-1.011A4.288,4.288,0,0,1,268.748,248.136Z" transform="translate(-266.748 -237.016)"/></g><g transform="translate(14.911 11.167)"><path class="l" d="M268.119,256.731l12.862-7.426c.756-.437,1.371-.127,1.371.694a2.938,2.938,0,0,1-1.372,2.277L268.118,259.7c-.756.437-1.371.127-1.37-.694A2.939,2.939,0,0,1,268.119,256.731Z" transform="translate(-266.748 -249.107)"/></g></g><g transform="translate(7.753 40.986)"><path class="m" d="M254.665,165.047,325.7,124.034c1.1-.637,2-.121,2,1.155v70.95a4.435,4.435,0,0,1-2,3.468l-71.042,41.249c-1.1.639-2,.125-2-1.151l0-71.194A4.418,4.418,0,0,1,254.665,165.047Z" transform="translate(-252.665 -123.761)"/><g transform="translate(0.001 24.022)"><path class="n" d="M280.742,183.279a1.762,1.762,0,0,0-3.105.356L252.666,231v10.69c0,1.276.894,1.79,2,1.15L325.7,201.806a4.435,4.435,0,0,0,2-3.468V174.686l-13.464-23.965c-.749-1.335-1.795-1.255-2.335.176l-17.968,47.615Z" transform="translate(-252.666 -149.77)"/></g><g transform="translate(0 33.551)"><path class="o" d="M260.158,187.009c6.268-3.588,11.35-12.342,11.35-19.55,0-3.676-1.323-6.227-3.445-7.373l-13.4,7.735a4.418,4.418,0,0,0-2,3.463v16.757C254.663,188.919,257.28,188.657,260.158,187.009Z" transform="translate(-252.665 -160.086)"/></g></g><g transform="translate(7.753 138.445)"><path class="l" d="M254.665,270.58,325.7,229.568c1.1-.638,2-.185,2,1.01a4.289,4.289,0,0,1-2,3.32l-71.038,41.013c-1.1.638-2,.186-2-1.01A4.287,4.287,0,0,1,254.665,270.58Z" transform="translate(-252.665 -229.279)"/><g transform="translate(0 8.665)"><path class="l" d="M254.665,279.962,325.7,238.949c1.1-.637,2-.185,2,1.011a4.291,4.291,0,0,1-2,3.32l-71.038,41.013c-1.1.637-2,.185-2-1.011A4.285,4.285,0,0,1,254.665,279.962Z" transform="translate(-252.665 -238.66)"/></g></g></g><g transform="translate(350.278 135.009)"><g transform="translate(40.45 40.758)"><path class="p" d="M427.309,186.683l3.593,6.587-5.589,4.79-5.12-8.117Z" transform="translate(-420.193 -186.683)"/></g><g transform="translate(34.085 26.077)"><path class="q" d="M413.3,170.788c3.562.037,7.486,1.332,8.836,4.127s5.57,11.5,5.57,11.5-3.15,4.611-8.145,4.287Z" transform="translate(-413.302 -170.788)"/></g><g transform="translate(42.921 44.749)"><path class="r" d="M427.235,194.622c1.045-1.943,1.3-2.028,1.923-2.455s4.43-.995,6.01-1.128c1.859-.157,2.52.185,2,1.784a81.244,81.244,0,0,1-5.213,11.692c-.493.657-.595,1.268-2.684,1.472-1.954.19-4.4.3-5.123.34s-1.719.223-1.072-1.9a70.25,70.25,0,0,1,2.854-7.049C426.737,195.636,427.235,194.622,427.235,194.622Z" transform="translate(-422.869 -191.005)"/></g><g transform="translate(0 120.42)"><ellipse class="j" cx="27.313" cy="13.017" rx="27.313" ry="13.017"/></g><g transform="translate(1.817 113.606)"><path class="r" d="M382.22,265.659c-.887-.456-1.45.671-2.256,1.575a6.588,6.588,0,0,0-1.574,2.36c-.193,1.069.77,2.752,1.838,3.68s2.305,1.593,2.693,3.627a4.95,4.95,0,0,0,3.286,4.154c2.311,1,5.407.677,6.456,0,1.243-.8.108-1.685-1.635-4.179-2.274-3.254-4.046-5.578-4.046-8.615Z" transform="translate(-378.366 -265.555)"/></g><g transform="translate(5.152 111.045)"><path class="s" d="M384.315,262.782l-1.868,2.738a2.626,2.626,0,0,0,.631,3.646l.057.039a2.823,2.823,0,0,0,3.575-.555l2.915-3.181Z" transform="translate(-381.977 -262.782)"/></g><g transform="translate(7.047 57.623)"><path class="t" d="M418.777,204.943c.118,3.488-.866,17.589-3.277,23.827s-3.805,10.116-4.564,11.413-22.609,22.57-22.609,22.57-3.708-.272-4.3-3.867c0,0,8.955-15.22,10.892-18.341s8.806-7.907,8.806-7.907l-.624-27.3Z" transform="translate(-384.029 -204.943)"/></g><g transform="translate(9.417)"><g transform="translate(0 43.535)"><path class="s" d="M386.6,200.378c.043-.606,1.862-7.5,2.794-10.688l6.767,2.33-1.589,5.021-5.955,6.159A2.5,2.5,0,0,1,386.6,200.378Z" transform="translate(-386.595 -189.69)"/></g><g transform="translate(26.027 124.178)"><rect class="s" width="4.737" height="6.899" transform="translate(6.15 6.727) rotate(167.186)"/></g><g transform="translate(9.385 57.623)"><path class="f" d="M419.749,204.943H397.591a78.453,78.453,0,0,0-.832,9.766c-.172,9.609,8.762,27.059,8.762,27.059a36.63,36.63,0,0,0,.58,11.624c1.959,7.654,7.3,20.6,7.3,20.6s3.344.478,5.006-1.458c0,0-2.957-26.293-3.753-33.03-.862-7.289-3.075-20.6-3.075-20.6a33.793,33.793,0,0,0,3.963-4.751,23.678,23.678,0,0,0,4.209-9.211" transform="translate(-396.756 -204.943)"/></g><g transform="translate(1.553 26.077)"><path class="o" d="M404.075,171c-4.248,1.022-10.038,2.353-11.717,6.958-1.66,4.554-4.081,12.753-4.081,12.753.932,1.616,6.055,2.958,7.831,2.019l.835-2.762v12.365c3.322,3.613,14.9,5.3,22.158,0V179.241c0-3.691-2.05-8.123-7.71-8.453Z" transform="translate(-388.277 -170.788)"/></g><g transform="translate(10.22 38.553)"><path class="u" d="M397.66,191l2.131-6.706L397.66,194Z" transform="translate(-397.66 -184.295)"/></g><g transform="translate(12.351)"><g transform="translate(0.712 7.387)"><path class="r" d="M403.431,150.571a2.52,2.52,0,0,0-2.087.734c-.9.917-.712,2.616,0,6.518l2.773.319Z" transform="translate(-400.738 -150.553)"/></g><g transform="translate(17.901 5.793)"><path class="r" d="M421.02,149.311a4.339,4.339,0,0,0,1.735-.352c.852-.49,1.073.478.607,1.319a3.961,3.961,0,0,1-3.217,2.142c-.024-.121-.8-2.165-.8-2.165Z" transform="translate(-419.349 -148.827)"/></g><g transform="translate(0 4.279)"><path class="s" d="M404.674,157.887c-.412.246-1-.545-1.506-1.076a1.786,1.786,0,0,0-2.992.485c-.842,1.775,1.07,4.136,2.193,4.916a1.971,1.971,0,0,0,2.305.2l.294,6.789a7.242,7.242,0,0,0,5.46,4.143c3.985.54,3.165-2.747,1.857-4.358l-.006-2.468a9.444,9.444,0,0,0,3.03.155c.521-.139,1.76-1.638,2.561-3.316a15.057,15.057,0,0,0,1.063-10.884c-1.431-6.077-7.957-6.262-11.85-3.812S404.674,157.887,404.674,157.887Z" transform="translate(-399.968 -147.188)"/></g><g transform="translate(2.93)"><path class="r" d="M404.916,158.226c-.207,0-.995-1.3-1.506-1.769-.71-.647.205-6.5.205-6.5a4,4,0,0,1,.685-3.691c1.4-1.471,4.122-1.223,6.112-1.295a17.859,17.859,0,0,0,7.108-1.426c2.824-1.227,3.035-1.372,3.385-.132a6.908,6.908,0,0,1-1.2,5.984l-.914,1.5a7.207,7.207,0,0,1-3.492,1.042c-2.634.321-7.123-1.094-7.685-1.17-.764-.1-.926.635-1.338,2.658C405.912,155.2,405.612,158.212,404.916,158.226Z" transform="translate(-403.14 -142.555)"/></g><g transform="translate(0.92 5.738)"><path class="r" d="M403.453,150.89l-2.489-1.336a1.372,1.372,0,0,1,1.884-.623A1.484,1.484,0,0,1,403.453,150.89Z" transform="translate(-400.964 -148.768)"/></g><g transform="translate(5.544 20.414)"><path class="p" d="M412.736,167.852a28.392,28.392,0,0,1-4.982-1.43,4.252,4.252,0,0,1-1.784-1.765,5.8,5.8,0,0,0,1.013,2.082c.944,1.206,5.752,2.095,5.752,2.095Z" transform="translate(-405.97 -164.657)"/></g><g transform="translate(9.954 11.18)"><g transform="translate(0.994 2.894)"><path class="r" d="M413.3,158.563a.74.74,0,1,1-.74-.771A.753.753,0,0,1,413.3,158.563Z" transform="translate(-411.82 -157.792)"/></g><g transform="translate(0 0.377)"><path class="r" d="M412.432,155.562l-1.582.873a.946.946,0,0,1,.369-1.259A.881.881,0,0,1,412.432,155.562Z" transform="translate(-410.744 -155.067)"/></g><g transform="translate(1.969 8.61)"><path class="p" d="M412.929,163.981l1.688.634a.887.887,0,0,1-1.147.56A.945.945,0,0,1,412.929,163.981Z" transform="translate(-412.876 -163.981)"/></g><g transform="translate(7.626)"><path class="r" d="M420.444,156.147,419,155.035a.875.875,0,0,1,1.254-.192A.956.956,0,0,1,420.444,156.147Z" transform="translate(-419.001 -154.659)"/></g><g transform="translate(7.145 2.683)"><path class="r" d="M419.96,158.334a.74.74,0,1,1-.74-.77A.753.753,0,0,1,419.96,158.334Z" transform="translate(-418.48 -157.564)"/></g><g transform="translate(4.444 3.364)"><path class="p" d="M416.252,158.3l-.7,4.4,2.437-.286Z" transform="translate(-415.556 -158.301)"/></g></g></g><g transform="translate(26.526 127.965)"><path class="r" d="M420.446,281.76l-.15-.659c.485.091,2.558,3.536,4.616,5.032,2.253,1.638,4.209,2.606,5.215,3.345,1.347.987-.6,3.011-3.917,3.191-1.645.091-4.64-.41-5.563-1.288s-1.591-2.325-2.323-2.955-2.212-1.181-2.714-1.989a5.735,5.735,0,0,1-.287-2.485c.029-.865.057-1.817.353-1.8.023.1.115.5.115.5a5.724,5.724,0,0,0,2.81.62C419.381,283.237,420.832,283.056,420.446,281.76Z" transform="translate(-415.315 -281.101)"/></g></g><g transform="translate(33.623 68.454)"><path class="v" d="M415.294,235.941s-1.967-13.975-2.492-16.14a22.038,22.038,0,0,0,4.375-3.132,35.917,35.917,0,0,1-2.992,3.74Z" transform="translate(-412.802 -216.669)"/></g><g transform="translate(24.25 87.261)"><path class="v" d="M402.654,237.031s2.364,5.885,3.317,7.187c0,0-.238,4.484-.205,5.39l-1.241,1.082a28.037,28.037,0,0,1,.556-6.048A36.467,36.467,0,0,1,402.654,237.031Z" transform="translate(-402.654 -237.031)"/></g><g transform="translate(21.32 84.898)"><path class="w" d="M399.482,234.473" transform="translate(-399.482 -234.473)"/></g><g transform="translate(11.385 47.618)"><path class="s" d="M394.738,197.379s18.636,2,20.822,1.317,5.126-2.864,6.709-3.769,2.714-.98,2.714-.6-1.35,2.441-1.659,3.294,1.457.858,3.77.325,3.24-1.88,3.844-1.091-1.282,4.634-5.126,6.065-6.7.488-9.869.621-22.749,1.387-27.16,0a3.894,3.894,0,0,1,1.524-3.754A14.124,14.124,0,0,1,394.738,197.379Z" transform="translate(-388.726 -194.11)"/></g></g><g transform="translate(89.552 217.7)"><g transform="translate(0 125.198)"><ellipse class="j" cx="25.04" cy="11.934" rx="25.04" ry="11.934"/></g><g transform="translate(8.602)"><g transform="translate(28.159 20.136)"><path class="w" d="M150.181,259.3c-.085.128-.877,1.427-.877,1.427L145.7,265.9l-3.519,5.279a.883.883,0,0,1-1.023.357c-.077-.025-.153-.05-.239-.084-1.219-.453-3.047-1.212-5.478-2.338-1.953-.9-1.864-1.192-1.864-1.524a3.8,3.8,0,0,1,.034-.794v-.017h.008c.4-.758,1.625-2.648,3.276-5.042,2.942-4.264,4.353-6.161,5.232-7.395a.925.925,0,0,1,1.152-.308c1.578.528,4.784,1.9,6.43,2.584a.775.775,0,0,1,.075.047C150.695,257.133,150.2,259.269,150.181,259.3Z" transform="translate(-133.568 -253.958)"/><g transform="translate(0 2.66)"><path class="r" d="M150.275,259.362c-.008.034-.97,1.588-.97,1.588l-3.479,5.3-3.647,5.143a.883.883,0,0,1-1.023.357c-.077-.025-.153-.05-.239-.084-1.219-.453-3.047-1.212-5.478-2.338-1.953-.9-1.864-1.192-1.864-1.524a3.8,3.8,0,0,1,.034-.794V267h.008c1.869.811,7.689,3.589,7.886,3.487.468-.222,4.423-6.579,6.53-9.82,1.05-1.615,1.53-2.3,1.879-2.854a.615.615,0,0,0-.129-.925c-.028-.014-.046-.035-.075-.047a1.505,1.505,0,0,1,.784,1.1A1.42,1.42,0,0,1,150.275,259.362Z" transform="translate(-133.568 -256.838)"/></g><g transform="translate(1.7 1.617)"><path class="x" d="M142.278,255.708l6.488,2.718-6.912,10.268-6.445-2.968Z" transform="translate(-135.409 -255.708)"/></g></g><g transform="translate(32.149 26.021)"><path class="s" d="M140.651,291.85c1.774-.505,4.452-7.1,6.493-14.576s3.073-9.142,3.142-11.5-.1-5.447-.1-5.447l-3.505,5.129a9.434,9.434,0,0,0-.885-2.84c-.45-.925-1.3-1.649-1.99-1.1-.371.3.6,1.564.4,4.39a14.654,14.654,0,0,0,.208,3.391l-6.519,15.79Z" transform="translate(-137.888 -260.329)"/></g><g transform="translate(0 24.62)"><path class="p" d="M111.751,258.961c-2.056-.58-3.8.515-4.771,3.8a128.2,128.2,0,0,0-3.7,18.817c-.276,2.284-.589,5.052,1.591,5.269,1.663.165,6.438-.759,7.3-1.59,1.132-1.091.9-5.485.9-5.485h-2.461s.535-3.471.7-4.516c.552-3.543,1.374-8,1.374-8Z" transform="translate(-103.081 -258.813)"/></g><g transform="translate(0.756)"><g transform="translate(11.873 19.979)"><path class="s" d="M124.887,255.363l-.841,7.4-7.293.841,1.052-9.817Z" transform="translate(-116.753 -253.788)"/></g><g transform="translate(4.39)"><path class="r" d="M108.652,242.909c.6-6.832,4.305-9.645,7.169-10.321,5.778-1.361,11.487.583,13.821,4.63a10.145,10.145,0,0,1,0,8c-1.252,2.866-20.99-2.31-20.99-2.31" transform="translate(-108.652 -232.157)"/><g transform="translate(20.786 14.427)"><path class="s" d="M131.751,247.777s1.04,2.822.768,3.03a3.96,3.96,0,0,1-1.362.242Z" transform="translate(-131.157 -247.777)"/></g><g transform="translate(5.924 3.832)"><path class="s" d="M127.407,238c1.379,1.18,3.74,3.318,3.078,9.265-.681,6.105-2.163,7.763-3.156,8.351-.67.4-3.614-.292-4.977-1.094-1.706-1-5.473-3.6-6.621-7.1-1.35-4.121-.674-9.033,2.306-10.32A9.738,9.738,0,0,1,127.407,238Z" transform="translate(-115.066 -236.305)"/></g><g transform="translate(0.014 2.178)"><path class="r" d="M128.621,238.021a10.881,10.881,0,0,1-3.9,8.575s-.859-2.224-2.758-1.71-1.884,3.03-.482,4.393a2.8,2.8,0,0,0,2.872.785,8.321,8.321,0,0,1-2.336,4.643,10.829,10.829,0,0,1-10.892-3.786c-4.226-5.074-2.977-13.118,3.616-15.493A13.18,13.18,0,0,1,128.621,238.021Z" transform="translate(-108.667 -234.515)"/></g></g><g transform="translate(5.718 132.707)"><path class="r" d="M115.368,375.97l3.15,4.377a10.522,10.522,0,0,1-4.575.973c-2.819.109-3.593-.816-3.7-1.04-.475-1.02.267-2.861.471-4.444Z" transform="translate(-110.089 -375.836)"/></g><g transform="translate(7.565 134.488)"><path class="r" d="M118.493,378.393s3.816-.243,6.455-.575,4.727.955,4.106,2.042-2.072,1.989-4.333,2.75c-1.939.652-4.261,1.126-6.283,1.732-2.073.621-3.4,1.33-4.575.927-1.309-.453-1.871-.975-1.76-1.929a41.291,41.291,0,0,1,1.06-4.023Z" transform="translate(-112.089 -377.764)"/></g><g transform="translate(5.874 127.981)"><path class="p" d="M110.258,371.183s.478,3.974.514,4.828,3.88,1.127,4.609-.431l.119-4.86Z" transform="translate(-110.258 -370.719)"/></g><g transform="translate(8.373 130.89)"><path class="s" d="M114.34,373.869l-1.375,6.029s-.129.736,3.013,1.2,8.066-1.643,8.9-2.073.939-1.283-2.146-1.112-4.178.177-4.178.177l1-2.673Z" transform="translate(-112.964 -373.869)"/></g><g transform="translate(0 50.145)"><path class="t" d="M109.773,286.448c-2.63,4.093-5.13,7.7-5.663,12.3-1.126,9.713,2.57,20.818,3.353,28a13,13,0,0,0-2.479,7.018c0,2.969,4.788,30.984,4.788,30.984s3.482,1.06,5.242-.464l3.29-51.539-1.733-6.274Z" transform="translate(-103.899 -286.448)"/></g><g transform="translate(3.281 66.443)"><path class="v" d="M118.575,314.092l-1.733-6.274a41.978,41.978,0,0,1-9.391-3.725s1.777,3.228,6.87,5l2.653,8.065.227,18.459Z" transform="translate(-107.451 -304.093)"/></g><g transform="translate(1.72 50.145)"><path class="f" d="M109.916,286.448c-1.408,2.3-4.771,6.223-4.056,10,.867,4.574,3.327,7.787,10.854,10.025l7.059,25.563s-3.676,3.44-4.8,6.712-5.183,28.447-5.183,28.447,1.255,2.05,5.219,1.554c0,0,13.825-31.576,14.8-33.608a10.223,10.223,0,0,0,1.17-6.864c-.44-3.311-5.149-39.529-5.149-39.529Z" transform="translate(-105.761 -286.448)"/></g><g transform="translate(3.913 24.762)"><path class="o" d="M108.814,261.288a3.5,3.5,0,0,1,3.855-2.235c4.922,1.34,12.577,3.1,14.031,3.531h0s-.653,9.484,5.016,12.828c-.267,2.112-1.705,11.234-1.705,11.234s-6.814,3.3-12.424,1.675-7.492-3.972-7.492-3.972l2.807-4.574c-.6-1.487-2.916-6.533-4.414-11.224A13.814,13.814,0,0,1,108.814,261.288Z" transform="translate(-108.135 -258.966)"/></g><g transform="translate(7.915 43.772)"><path class="u" d="M112.468,279.548a49.226,49.226,0,0,0,7.3,3.61,13.712,13.712,0,0,1-6.537-1.811Z" transform="translate(-112.468 -279.548)"/></g><g transform="translate(22.614 36.043)"><path class="u" d="M133.1,275.615a10.164,10.164,0,0,1-4.718-4.435,9.783,9.783,0,0,0,4.718,7.314Z" transform="translate(-128.383 -271.18)"/></g><g transform="translate(22.166 28.38)"><path class="s" d="M128.211,262.883c3.094.928,5.016,1.217,6.689,2.715,2.2,1.97,4.467,13.155,4.929,15.458.805,4,1.692,8.16.824,10.021-.629,1.349-4.04,2.36-5.538-2.007-.32-.931-.38-1.342-.661-2.177-1.408-4.174-3.533-12.154-3.533-12.154S126.74,272.429,128.211,262.883Z" transform="translate(-127.897 -262.883)"/></g></g><g transform="translate(2.119 3.061)"><path class="r" d="M111.48,235.471c-1.107.639-3.093,1.253-4.324,7.024a88.821,88.821,0,0,0-1.779,14.677c.046,1.8,3.759,6.778,11.594,6.3s10.675-5.061,10.675-5.061-3.846-1.567-3.549-8.274c0,0-1.349,2.672-5.075,1.335S111.48,235.471,111.48,235.471Z" transform="translate(-105.375 -235.471)"/></g></g></g><g transform="translate(255.772 220.086)"><g transform="translate(0 135.546)"><ellipse class="j" cx="26.056" cy="12.419" rx="26.056" ry="12.419"/></g><g transform="translate(8.739)"><g transform="translate(0 44.088)"><path class="s" d="M283.423,293.159c.043-.6,1.178-7.07,1.959-10.686l7.6,2.328-1.219,5.065-6.325,6.115A2.5,2.5,0,0,1,283.423,293.159Z" transform="translate(-283.415 -282.473)"/></g><g transform="translate(1.186)"><g transform="translate(5.2)"><path class="r" d="M11.131,0h2A11.131,11.131,0,0,1,24.26,11.131V36.473a0,0,0,0,1,0,0H0a0,0,0,0,1,0,0V11.131A11.131,11.131,0,0,1,11.131,0Z"/></g><g transform="translate(28.47 41.143)"><path class="p" d="M322.637,279.285l3.593,6.587-5.589,4.79-5.119-8.117Z" transform="translate(-315.522 -279.285)"/></g><g transform="translate(22.103 26.463)"><path class="q" d="M308.63,263.391c3.562.037,7.487,1.332,8.836,4.126s5.57,11.5,5.57,11.5-3.149,4.611-8.144,4.286Z" transform="translate(-308.63 -263.391)"/></g><g transform="translate(15.176 132.89)"><path class="r" d="M310.937,386.135a32.083,32.083,0,0,0,4.12,4.544,1.955,1.955,0,0,1,.56.736c.163.476.368,1.632-1.773,2.1a7.7,7.7,0,0,1-6.269-1.362c-1.562-1.257-1.376-3.465-2.819-4.906-1.07-1.07-2.515-1.483-3.325-2.81-.562-.924-.256-2.027.255-3.379.56-1.474.87-2.6,1.36-2.426l-.166.689c.508,1.076,3.725,1.758,5.255,1.24A59.9,59.9,0,0,0,310.937,386.135Z" transform="translate(-301.13 -378.618)"/></g><g transform="translate(16.877 128.615)"><path class="s" d="M312.334,387.371l0-.01c-.435-.506-.859-1.025-1.258-1.581a40.012,40.012,0,0,1-2.188-4.227,3.85,3.85,0,0,1-.206-2.735l1.057-3.556-5.521-1.273-1.2,4.982h0c-.26,1.131.565,2.26,2.071,3.9s3.234,5.267,4.65,6.3,2.506,1.126,3.2.769C313.665,389.572,313.771,389.237,312.334,387.371Z" transform="translate(-302.971 -373.989)"/></g><g transform="translate(3.387 142.755)"><path class="r" d="M295.06,390.083V389.3c.308.914,1.735,4.853,3.9,6.826,1.72,1.569,4.066,3.38,4.663,5.131.621,1.82-3.265,2.43-4.873,2.146a9.923,9.923,0,0,1-5.6-3.006c-.925-1.135-1.513-2.482-2.173-3.375s-2.182-1.891-2.539-2.924a6.588,6.588,0,0,1,.312-2.863c.253-.964.526-2.025.856-1.933,0,.117,0,.594,0,.594a4.306,4.306,0,0,0,2.727.921C293.132,390.85,295.067,390.693,295.06,390.083Z" transform="translate(-288.366 -389.299)"/></g><g transform="translate(4.628 138.291)"><path class="s" d="M300.618,397.142c-.534-.477-1.07-.942-1.557-1.385a15.833,15.833,0,0,1-3.326-5.315,7.479,7.479,0,0,1-.572-2.869v-3.108H289.71v5.059h0v.135l.027.014c.262,1.133,2.765,4.148,4.187,6.114a7.925,7.925,0,0,0,4.928,3.283C300.9,399.343,301.951,398.7,300.618,397.142Z" transform="translate(-289.71 -384.465)"/></g><g transform="translate(3.213 57.438)"><path class="f" d="M290.678,298.278c-4.227,9.234.152,41.761.152,41.761-.127,1.5-1.84,4.447-2.479,11.043-.754,7.792,1.183,27.359,1.183,27.359a5.9,5.9,0,0,0,5.511.219s5.2-29.468,6.175-37.217c.853-6.761,3.124-24.868,3.124-24.868l4.59,24.261a30.847,30.847,0,0,0-3.052,6.065c-1.1,3.421-3.322,22.954-3.322,22.954A6.681,6.681,0,0,0,308.2,371.5s10.666-26.769,11.145-32.253c.285-3.277-4.5-42.324-4.5-42.324Z" transform="translate(-288.177 -296.927)"/></g><g transform="translate(19.381 68.071)"><path class="v" d="M305.682,317.455l.738-5.338s5.808-1.2,8.441-3.678A15.027,15.027,0,0,1,307.994,313l-.774,5.153.972,11.945Z" transform="translate(-305.682 -308.439)"/></g><g transform="translate(5.2 26.463)"><path class="o" d="M298.3,263.638h0a10.7,10.7,0,0,0-7.156,5.853,9.279,9.279,0,0,0-.257,6.986l3.777,10.927s-1.769,4.275-3.821,8.314c9.478,5.291,21.315,2.509,24.165-1.351.12-.819-.043-4.51.186-8.71.246-4.479.861-9.535.156-12.3-1.307-5.139-3.755-9.962-8.629-9.962Z" transform="translate(-290.329 -263.391)"/></g><g transform="translate(0 26.709)"><path class="o" d="M296.461,263.658c-3.235.457-7.985,1.109-9.622,8.8-1.66,7.792-2.139,10.5-2.139,10.5a10.785,10.785,0,0,0,8.022,3.064l1.668-5.908Z" transform="translate(-284.699 -263.658)"/></g><g transform="translate(9.35 16.574)"><path class="r" d="M299.067,269.3h0a4.245,4.245,0,0,1-4.245-4.245V252.685h4.245Z" transform="translate(-294.822 -252.685)"/></g><g transform="translate(8.873 4.906)"><path class="s" d="M310.907,240.052c1.282.757,2.866,3.98,2.709,10.735-.132,5.726-1.989,7.14-2.92,7.548s-2.729.16-4.477-.132v3.437s2.414,2.805,2.263,4.381-3.487,1.947-5.746.408a14.619,14.619,0,0,1-3.709-3.882v-8.306a2.194,2.194,0,0,1-3.109.294c-1.929-1.281-2-4.452-.88-5.591s3.539-.779,3.989.8a13.817,13.817,0,0,0,6.5-1.938A10.423,10.423,0,0,0,310.907,240.052Z" transform="translate(-294.306 -240.052)"/></g><g transform="translate(20.351 13.49)"><path class="r" d="M308.173,250.059a.721.721,0,1,1-.756-.713A.731.731,0,0,1,308.173,250.059Z" transform="translate(-306.733 -249.345)"/></g><g transform="translate(21.946 19.057)"><path class="p" d="M308.5,255.373l1.672.533a.862.862,0,0,1-1.087.6A.92.92,0,0,1,308.5,255.373Z" transform="translate(-308.46 -255.373)"/></g><g transform="translate(26.238 10.58)"><path class="r" d="M314.563,247.607l-1.458-1.01a.85.85,0,0,1,1.21-.248A.931.931,0,0,1,314.563,247.607Z" transform="translate(-313.106 -246.195)"/></g><g transform="translate(25.92 12.969)"><path class="r" d="M314.2,249.495a.72.72,0,1,1-.756-.713A.732.732,0,0,1,314.2,249.495Z" transform="translate(-312.762 -248.781)"/></g><g transform="translate(23.962 13.27)"><path class="p" d="M310.643,249.108l.115,4.335,2.281-.707Z" transform="translate(-310.643 -249.108)"/></g><g transform="translate(14.568 20.231)"><path class="p" d="M306.691,259.47c-1.842-.241-5.63-1.329-6.22-2.826a3.881,3.881,0,0,0,1.328,1.911c1.131.97,4.892,2.062,4.892,2.062Z" transform="translate(-300.471 -256.644)"/></g></g><g transform="translate(32.126 45.135)"><path class="r" d="M322.563,287.224c1.045-1.943,1.3-2.028,1.924-2.455s4.43-.995,6.01-1.128c1.858-.156,2.519.185,2,1.784a81.231,81.231,0,0,1-5.214,11.692c-.492.657-.594,1.268-2.684,1.472-1.953.19-4.4.3-5.123.34s-1.718.223-1.072-1.9a70.2,70.2,0,0,1,2.855-7.048C322.065,288.238,322.563,287.224,322.563,287.224Z" transform="translate(-318.198 -283.607)"/></g><g transform="translate(1.967 48.003)"><path class="s" d="M291.926,290.19s16.89,1.786,19.076,1.108,5.126-2.865,6.709-3.769,2.715-.981,2.715-.6-1.351,2.442-1.659,3.295,1.456.858,3.769.324,3.241-1.88,3.844-1.09-1.281,4.633-5.126,6.065-6.7.487-9.869.621-21.372,1.554-25.784.165a3.9,3.9,0,0,1,1.525-3.755A13.551,13.551,0,0,1,291.926,290.19Z" transform="translate(-285.544 -286.712)"/></g><g transform="translate(9.568 41.143)"><path class="u" d="M293.774,285.282a56.963,56.963,0,0,0,1.859-6s-.3,4.462-1.56,6.861Z" transform="translate(-293.774 -279.285)"/></g></g></g><g transform="translate(136.719 170.391)"><g transform="translate(7.936 41.952)"><path class="p" d="M156.535,226.305l-3.009,6.485,5.589,4.79,4.832-8.16Z" transform="translate(-153.525 -226.305)"/></g><g transform="translate(10.315 27.126)"><path class="y" d="M170.509,210.253c-3.562.037-7.487,1.333-8.836,4.127s-5.571,11.5-5.571,11.5,3.15,4.611,8.145,4.287Z" transform="translate(-156.101 -210.253)"/></g><g transform="translate(0 125.843)"><ellipse class="j" cx="26.057" cy="12.419" rx="26.057" ry="12.419"/></g><g transform="translate(6.397)"><g transform="translate(28.854 130.003)"><rect class="s" width="4.928" height="7.176"/></g><g transform="translate(11.523 121.12)"><rect class="s" width="4.928" height="7.177" transform="translate(0 0.17) rotate(-1.972)"/></g><g transform="translate(6.899 59.942)"><path class="f" d="M185.888,245.782c0,4.706.61,35.15.61,35.15.115,1.354,1.384,3.851,1.109,9.052-.374,7.065-.984,26.691-.984,26.691s-2.312,2.292-5.574,0c0,0-4.462-26.667-5.345-33.668-.77-6.111-2.078-22.711-2.078-22.711l-4.566,19.54s.8,4.593.98,7.835-.837,21.967-.837,21.967a5.382,5.382,0,0,1-5.362.205s-3.96-27.359-4.468-30.287,3.465-33.774,3.465-33.774Z" transform="translate(-159.328 -245.782)"/></g><g transform="translate(10.409 27.126)"><path class="z" d="M178.761,210.477l.067.016A9.769,9.769,0,0,1,186.178,220v23.071c-3.455,3.759-15.5,5.511-23.049,0V219.046c0-3.839,2.133-8.45,8.022-8.793Z" transform="translate(-163.129 -210.253)"/></g><g transform="translate(8.197)"><g transform="translate(18.79 7.684)"><path class="r" d="M181.79,189.222a2.625,2.625,0,0,1,2.172.765c.934.953.74,2.721,0,6.78l-2.885.331Z" transform="translate(-181.077 -189.204)"/></g><g transform="translate(0 6.026)"><path class="r" d="M163.419,187.911a4.52,4.52,0,0,1-1.8-.366c-.886-.509-1.117.5-.631,1.372a4.121,4.121,0,0,0,3.346,2.229c.026-.126.828-2.253.828-2.253Z" transform="translate(-160.734 -187.408)"/></g><g transform="translate(2.768 4.451)"><path class="s" d="M179.112,196.833c.428.256,1.039-.566,1.567-1.119a1.858,1.858,0,0,1,3.112.5c.876,1.847-1.113,4.3-2.281,5.114a2.05,2.05,0,0,1-2.4.208l-.306,7.062a7.529,7.529,0,0,1-5.678,4.309c-4.147.562-3.294-2.857-1.931-4.532l.006-2.568a9.838,9.838,0,0,1-3.153.162c-.541-.144-1.831-1.7-2.664-3.449a15.661,15.661,0,0,1-1.106-11.323c1.487-6.321,8.278-6.513,12.327-3.965S179.112,196.833,179.112,196.833Z" transform="translate(-163.731 -185.703)"/></g><g transform="translate(1.289)"><path class="r" d="M178.99,197.185c.215,0,1.034-1.355,1.567-1.84.738-.671-.214-6.758-.214-6.758a4.156,4.156,0,0,0-.713-3.839c-1.459-1.531-4.288-1.273-6.356-1.348a18.582,18.582,0,0,1-7.395-1.483c-2.938-1.276-3.157-1.427-3.522-.137a7.185,7.185,0,0,0,1.252,6.224l1.458.536s.788.7,3.527,1.033a40.455,40.455,0,0,0,7.591-.144c.794-.108.964.661,1.392,2.765C177.954,194.041,178.266,197.171,178.99,197.185Z" transform="translate(-162.129 -180.884)"/></g><g transform="translate(19.337 5.969)"><path class="r" d="M181.831,189.554l2.589-1.39a1.427,1.427,0,0,0-1.96-.648A1.545,1.545,0,0,0,181.831,189.554Z" transform="translate(-181.669 -187.346)"/></g><g transform="translate(10.24 21.235)"><path class="p" d="M171.821,207.2A29.428,29.428,0,0,0,177,205.711a4.42,4.42,0,0,0,1.855-1.836,6.044,6.044,0,0,1-1.054,2.166c-.982,1.255-5.983,2.179-5.983,2.179Z" transform="translate(-171.821 -203.875)"/></g><g transform="translate(4.119 10.809)"><g transform="translate(7.044 3.01)"><path class="r" d="M172.82,196.648a.77.77,0,1,0,.769-.8A.782.782,0,0,0,172.82,196.648Z" transform="translate(-172.82 -195.846)"/></g><g transform="translate(7.86 0.392)"><path class="r" d="M173.7,193.525l1.646.909a.988.988,0,0,0-.384-1.311A.918.918,0,0,0,173.7,193.525Z" transform="translate(-173.704 -193.011)"/></g><g transform="translate(5.344 9.029)"><path class="p" d="M172.737,202.362l-1.757.659a.922.922,0,0,0,1.193.582A.982.982,0,0,0,172.737,202.362Z" transform="translate(-170.98 -202.362)"/></g><path class="r" d="M165.376,194.134l1.5-1.156a.91.91,0,0,0-1.305-.2A1,1,0,0,0,165.376,194.134Z" transform="translate(-165.194 -192.587)"/><g transform="translate(0.644 2.792)"><path class="r" d="M165.891,196.411a.77.77,0,1,0,.77-.8A.782.782,0,0,0,165.891,196.411Z" transform="translate(-165.891 -195.609)"/></g><g transform="translate(1.896 2.863)"><path class="p" d="M169.915,195.686l-.253,4.627-2.416-.824Z" transform="translate(-167.246 -195.686)"/></g></g></g><g transform="translate(21.057 134.037)"><path class="r" d="M182.454,326.713v-.7c-.471.205-1.567,4.385-3.522,6.169-1.555,1.418-3.675,3.055-4.215,4.636-.562,1.644,2.953,2.552,4.4,2.294,1.687-.3,4.613-1.487,5.347-2.588s1.078-2.726,1.675-3.533,1.971-1.71,2.294-2.643a5.957,5.957,0,0,0-.283-2.588c-.228-.871-.476-1.829-.773-1.747,0,.106,0,.538,0,.538a3.9,3.9,0,0,1-2.464.832C184.2,327.406,182.449,327.263,182.454,326.713Z" transform="translate(-174.658 -326.004)"/></g><g transform="translate(0 126.66)"><path class="r" d="M163.577,318.3c-.256.009-.465.37-1.028.981a10.775,10.775,0,0,1-2.9,2.086c-1.845.924-5.433,2.344-7.057,3.076-1.015.457-.967,1.682.081,2.379s3.58,1.2,6.62.52c1.656-.37,3.812-1.9,5.176-1.817s3.917.063,4.925-.632.6-2.177.32-3.451c-.311-1.39-.756-3.518-1.216-3.422l.016.436c-.593.9-3.609,1.264-4.91.6Z" transform="translate(-151.859 -318.017)"/></g></g><g transform="translate(1.414 45.798)"><path class="r" d="M156.57,234.087c-1.045-1.943-1.3-2.028-1.923-2.456s-4.43-.994-6.01-1.128c-1.86-.156-2.52.186-2,1.784a81.231,81.231,0,0,0,5.214,11.692c.493.657.594,1.268,2.684,1.471,1.953.19,4.4.3,5.123.341s1.718.223,1.072-1.9a70.206,70.206,0,0,0-2.855-7.048C157.068,235.1,156.57,234.087,156.57,234.087Z" transform="translate(-146.464 -230.469)"/></g><g transform="translate(39.82 44.585)"><path class="s" d="M197.607,239.843c-.043-.606-1.862-7.5-2.793-10.688l-6.767,2.33,1.589,5.021,5.956,6.159A2.5,2.5,0,0,0,197.607,239.843Z" transform="translate(-188.046 -229.155)"/></g><g transform="translate(5.098 48.667)"><path class="s" d="M186.764,236.844s-18.636,2-20.821,1.317-5.126-2.864-6.709-3.769-2.715-.98-2.715-.6,1.352,2.441,1.659,3.294-1.456.858-3.769.325-3.241-1.88-3.844-1.091,1.281,4.634,5.126,6.065,6.7.488,9.869.621,22.749,1.387,27.16,0a3.9,3.9,0,0,0-1.525-3.755A14.122,14.122,0,0,0,186.764,236.844Z" transform="translate(-150.453 -233.575)"/></g><g transform="translate(33.999 27.873)"><path class="z" d="M181.744,211.062c2.928.964,8.735,1.461,10.605,7.8s2.817,10.448,2.817,10.448c-1.1,1.472-5.5,3.177-7.566,2.549Z" transform="translate(-181.744 -211.062)"/></g><g transform="translate(37.85 41.548)"><path class="e" d="M187.919,232.986l-2.005-7.119,2.005,10.012Z" transform="translate(-185.914 -225.867)"/></g></g></g></svg>